<mxfile host="app.diagrams.net" modified="2022-11-27T02:03:46.064Z" agent="5.0 (Windows NT 10.0; Win64; x64) AppleWebKit/537.36 (KHTML, like Gecko) Chrome/107.0.0.0 Safari/537.36" etag="H7QpKs6F8VJq7LM9MpZh" version="20.5.3" type="github">
  <diagram id="ThOdFFGARETO164uNe6i" name="Page-1">
    <mxGraphModel dx="865" dy="518" grid="1" gridSize="10" guides="1" tooltips="1" connect="1" arrows="1" fold="1" page="1" pageScale="1" pageWidth="1700" pageHeight="1100" math="0" shadow="0">
      <root>
        <mxCell id="0" />
        <mxCell id="1" parent="0" />
        <mxCell id="P9_WP7KtGCWW9CeGZDhG-2" value="&lt;span style=&quot;color: rgb(32, 33, 34); font-family: sans-serif; font-size: 14px; text-align: start; background-color: rgb(255, 255, 255);&quot;&gt;Î¼(x)&lt;/span&gt;" style="text;strokeColor=none;fillColor=none;html=1;fontSize=15;fontStyle=0;verticalAlign=middle;align=center;" vertex="1" parent="1">
          <mxGeometry x="218" y="220" width="60" height="10" as="geometry" />
        </mxCell>
        <mxCell id="P9_WP7KtGCWW9CeGZDhG-5" value="&lt;span style=&quot;color: rgb(32, 33, 34); font-family: sans-serif; font-size: 14px; text-align: start; background-color: rgb(255, 255, 255);&quot;&gt;1&lt;/span&gt;" style="text;strokeColor=none;fillColor=none;html=1;fontSize=15;fontStyle=0;verticalAlign=middle;align=center;" vertex="1" parent="1">
          <mxGeometry x="207" y="264" width="50" height="10" as="geometry" />
        </mxCell>
        <mxCell id="P9_WP7KtGCWW9CeGZDhG-6" value="&lt;span style=&quot;color: rgb(32, 33, 34); font-family: sans-serif; font-size: 14px; text-align: start; background-color: rgb(255, 255, 255);&quot;&gt;0&lt;/span&gt;" style="text;strokeColor=none;fillColor=none;html=1;fontSize=15;fontStyle=0;verticalAlign=middle;align=center;" vertex="1" parent="1">
          <mxGeometry x="200" y="421" width="60" height="10" as="geometry" />
        </mxCell>
        <mxCell id="P9_WP7KtGCWW9CeGZDhG-7" value="&lt;div style=&quot;text-align: start;&quot;&gt;&lt;span style=&quot;background-color: initial; font-size: 14px;&quot;&gt;&lt;font face=&quot;sans-serif&quot; color=&quot;#202122&quot;&gt;463,09&lt;/font&gt;&lt;/span&gt;&lt;/div&gt;" style="text;strokeColor=none;fillColor=none;html=1;fontSize=15;fontStyle=0;verticalAlign=middle;align=center;" vertex="1" parent="1">
          <mxGeometry x="302" y="446" width="50" height="10" as="geometry" />
        </mxCell>
        <mxCell id="P9_WP7KtGCWW9CeGZDhG-8" value="&lt;div style=&quot;text-align: start;&quot;&gt;&lt;span style=&quot;background-color: initial; font-size: 14px;&quot;&gt;&lt;font face=&quot;sans-serif&quot; color=&quot;#202122&quot;&gt;514,84&lt;/font&gt;&lt;/span&gt;&lt;/div&gt;" style="text;strokeColor=none;fillColor=none;html=1;fontSize=15;fontStyle=0;verticalAlign=middle;align=center;" vertex="1" parent="1">
          <mxGeometry x="398" y="446" width="60" height="10" as="geometry" />
        </mxCell>
        <mxCell id="P9_WP7KtGCWW9CeGZDhG-9" value="&lt;div style=&quot;text-align: start;&quot;&gt;&lt;span style=&quot;background-color: initial; font-size: 14px;&quot;&gt;&lt;font face=&quot;sans-serif&quot; color=&quot;#202122&quot;&gt;566,58&lt;/font&gt;&lt;/span&gt;&lt;/div&gt;" style="text;strokeColor=none;fillColor=none;html=1;fontSize=15;fontStyle=0;verticalAlign=middle;align=center;" vertex="1" parent="1">
          <mxGeometry x="498" y="446" width="60" height="10" as="geometry" />
        </mxCell>
        <mxCell id="P9_WP7KtGCWW9CeGZDhG-17" value="" style="endArrow=none;html=1;rounded=0;fontSize=15;" edge="1" parent="1">
          <mxGeometry width="50" height="50" relative="1" as="geometry">
            <mxPoint x="248" y="440" as="sourcePoint" />
            <mxPoint x="248" y="240" as="targetPoint" />
          </mxGeometry>
        </mxCell>
        <mxCell id="P9_WP7KtGCWW9CeGZDhG-18" value="" style="endArrow=none;html=1;rounded=0;fontSize=15;" edge="1" parent="1">
          <mxGeometry width="50" height="50" relative="1" as="geometry">
            <mxPoint x="248" y="440" as="sourcePoint" />
            <mxPoint x="608" y="440" as="targetPoint" />
          </mxGeometry>
        </mxCell>
        <mxCell id="P9_WP7KtGCWW9CeGZDhG-19" value="" style="endArrow=none;html=1;rounded=0;fontSize=15;fillColor=#dae8fc;strokeColor=#6c8ebf;strokeWidth=2;" edge="1" parent="1">
          <mxGeometry width="50" height="50" relative="1" as="geometry">
            <mxPoint x="248" y="270" as="sourcePoint" />
            <mxPoint x="328" y="270" as="targetPoint" />
          </mxGeometry>
        </mxCell>
        <mxCell id="P9_WP7KtGCWW9CeGZDhG-21" value="" style="endArrow=none;html=1;rounded=0;fontSize=15;fillColor=#dae8fc;strokeColor=#6c8ebf;strokeWidth=2;" edge="1" parent="1">
          <mxGeometry width="50" height="50" relative="1" as="geometry">
            <mxPoint x="328" y="270" as="sourcePoint" />
            <mxPoint x="428" y="440" as="targetPoint" />
          </mxGeometry>
        </mxCell>
        <mxCell id="P9_WP7KtGCWW9CeGZDhG-22" value="" style="endArrow=none;html=1;rounded=0;fontSize=15;fillColor=#d5e8d4;strokeColor=#82b366;strokeWidth=2;" edge="1" parent="1">
          <mxGeometry width="50" height="50" relative="1" as="geometry">
            <mxPoint x="528" y="270" as="sourcePoint" />
            <mxPoint x="428" y="440" as="targetPoint" />
          </mxGeometry>
        </mxCell>
        <mxCell id="P9_WP7KtGCWW9CeGZDhG-23" value="" style="endArrow=none;html=1;rounded=0;fontSize=15;fillColor=#d5e8d4;strokeColor=#82b366;strokeWidth=2;" edge="1" parent="1">
          <mxGeometry width="50" height="50" relative="1" as="geometry">
            <mxPoint x="528" y="270" as="sourcePoint" />
            <mxPoint x="608" y="270" as="targetPoint" />
          </mxGeometry>
        </mxCell>
        <mxCell id="P9_WP7KtGCWW9CeGZDhG-25" value="" style="endArrow=none;html=1;rounded=0;fontSize=15;fillColor=#f8cecc;strokeColor=#b85450;strokeWidth=2;" edge="1" parent="1">
          <mxGeometry width="50" height="50" relative="1" as="geometry">
            <mxPoint x="428" y="270" as="sourcePoint" />
            <mxPoint x="328" y="440" as="targetPoint" />
          </mxGeometry>
        </mxCell>
        <mxCell id="P9_WP7KtGCWW9CeGZDhG-26" value="" style="endArrow=none;html=1;rounded=0;fontSize=15;fillColor=#f8cecc;strokeColor=#b85450;strokeWidth=2;" edge="1" parent="1">
          <mxGeometry width="50" height="50" relative="1" as="geometry">
            <mxPoint x="428" y="270" as="sourcePoint" />
            <mxPoint x="528" y="440" as="targetPoint" />
          </mxGeometry>
        </mxCell>
        <mxCell id="P9_WP7KtGCWW9CeGZDhG-27" value="&lt;div style=&quot;text-align: start;&quot;&gt;&lt;span style=&quot;background-color: initial; font-size: 14px;&quot;&gt;&lt;font face=&quot;sans-serif&quot; color=&quot;#202122&quot;&gt;CPO Price&lt;/font&gt;&lt;/span&gt;&lt;/div&gt;" style="text;strokeColor=none;fillColor=none;html=1;fontSize=15;fontStyle=0;verticalAlign=middle;align=center;" vertex="1" parent="1">
          <mxGeometry x="610" y="446" width="60" height="10" as="geometry" />
        </mxCell>
        <mxCell id="P9_WP7KtGCWW9CeGZDhG-28" value="&lt;div style=&quot;text-align: start;&quot;&gt;&lt;span style=&quot;background-color: initial; font-size: 14px;&quot;&gt;&lt;font face=&quot;sans-serif&quot; color=&quot;#202122&quot;&gt;Low&lt;/font&gt;&lt;/span&gt;&lt;/div&gt;" style="text;strokeColor=none;fillColor=none;html=1;fontSize=15;fontStyle=0;verticalAlign=middle;align=center;" vertex="1" parent="1">
          <mxGeometry x="257" y="254" width="60" height="10" as="geometry" />
        </mxCell>
        <mxCell id="P9_WP7KtGCWW9CeGZDhG-29" value="&lt;div style=&quot;text-align: start;&quot;&gt;&lt;span style=&quot;background-color: initial; font-size: 14px;&quot;&gt;&lt;font face=&quot;sans-serif&quot; color=&quot;#202122&quot;&gt;Medium&lt;/font&gt;&lt;/span&gt;&lt;/div&gt;" style="text;strokeColor=none;fillColor=none;html=1;fontSize=15;fontStyle=0;verticalAlign=middle;align=center;" vertex="1" parent="1">
          <mxGeometry x="398" y="254" width="60" height="10" as="geometry" />
        </mxCell>
        <mxCell id="P9_WP7KtGCWW9CeGZDhG-30" value="&lt;div style=&quot;text-align: start;&quot;&gt;&lt;span style=&quot;background-color: initial; font-size: 14px;&quot;&gt;&lt;font face=&quot;sans-serif&quot; color=&quot;#202122&quot;&gt;High&lt;/font&gt;&lt;/span&gt;&lt;/div&gt;" style="text;strokeColor=none;fillColor=none;html=1;fontSize=15;fontStyle=0;verticalAlign=middle;align=center;" vertex="1" parent="1">
          <mxGeometry x="540" y="254" width="60" height="10" as="geometry" />
        </mxCell>
      </root>
    </mxGraphModel>
  </diagram>
</mxfile>
